<mxfile host="65bd71144e">
    <diagram id="TcWRND_OKU5vL0__0zdm" name="Page-1">
        <mxGraphModel dx="2019" dy="860" grid="1" gridSize="10" guides="1" tooltips="1" connect="1" arrows="1" fold="1" page="1" pageScale="1" pageWidth="850" pageHeight="1100" math="0" shadow="0">
            <root>
                <mxCell id="0"/>
                <mxCell id="1" parent="0"/>
                <mxCell id="2" value="disc" style="whiteSpace=wrap;html=1;align=center;" parent="1" vertex="1">
                    <mxGeometry x="430" y="350" width="100" height="40" as="geometry"/>
                </mxCell>
                <mxCell id="3" value="model" style="ellipse;whiteSpace=wrap;html=1;align=center;" parent="1" vertex="1">
                    <mxGeometry x="310" y="370" width="85" height="40" as="geometry"/>
                </mxCell>
                <mxCell id="4" value="version" style="ellipse;whiteSpace=wrap;html=1;align=center;" parent="1" vertex="1">
                    <mxGeometry x="310" y="320" width="90" height="40" as="geometry"/>
                </mxCell>
                <mxCell id="5" value="brand" style="ellipse;whiteSpace=wrap;html=1;align=center;" parent="1" vertex="1">
                    <mxGeometry x="390" y="410" width="90" height="40" as="geometry"/>
                </mxCell>
                <mxCell id="6" value="id" style="ellipse;whiteSpace=wrap;html=1;align=center;fontStyle=4;" parent="1" vertex="1">
                    <mxGeometry x="490" y="410" width="90" height="40" as="geometry"/>
                </mxCell>
                <mxCell id="7" value="plastic" style="ellipse;whiteSpace=wrap;html=1;align=center;" parent="1" vertex="1">
                    <mxGeometry x="340" y="270" width="90" height="40" as="geometry"/>
                </mxCell>
                <mxCell id="8" value="" style="endArrow=none;html=1;rounded=0;" parent="1" source="2" target="6" edge="1">
                    <mxGeometry relative="1" as="geometry">
                        <mxPoint x="460" y="430" as="sourcePoint"/>
                        <mxPoint x="620" y="430" as="targetPoint"/>
                    </mxGeometry>
                </mxCell>
                <mxCell id="9" value="" style="endArrow=none;html=1;rounded=0;" parent="1" source="7" target="2" edge="1">
                    <mxGeometry relative="1" as="geometry">
                        <mxPoint x="460" y="430" as="sourcePoint"/>
                        <mxPoint x="620" y="430" as="targetPoint"/>
                    </mxGeometry>
                </mxCell>
                <mxCell id="10" value="" style="endArrow=none;html=1;rounded=0;" parent="1" source="2" target="3" edge="1">
                    <mxGeometry relative="1" as="geometry">
                        <mxPoint x="460" y="430" as="sourcePoint"/>
                        <mxPoint x="620" y="430" as="targetPoint"/>
                    </mxGeometry>
                </mxCell>
                <mxCell id="11" value="" style="endArrow=none;html=1;rounded=0;" parent="1" source="2" target="4" edge="1">
                    <mxGeometry relative="1" as="geometry">
                        <mxPoint x="460" y="430" as="sourcePoint"/>
                        <mxPoint x="620" y="430" as="targetPoint"/>
                    </mxGeometry>
                </mxCell>
                <mxCell id="12" value="" style="endArrow=none;html=1;rounded=0;" parent="1" source="5" target="2" edge="1">
                    <mxGeometry relative="1" as="geometry">
                        <mxPoint x="460" y="430" as="sourcePoint"/>
                        <mxPoint x="470" y="430" as="targetPoint"/>
                    </mxGeometry>
                </mxCell>
                <mxCell id="29" value="amount" style="ellipse;whiteSpace=wrap;html=1;align=center;" parent="1" vertex="1">
                    <mxGeometry x="435" y="260" width="90" height="40" as="geometry"/>
                </mxCell>
                <mxCell id="30" value="" style="endArrow=none;html=1;rounded=0;" parent="1" source="29" target="2" edge="1">
                    <mxGeometry relative="1" as="geometry">
                        <mxPoint x="606.67" y="390" as="sourcePoint"/>
                        <mxPoint x="670.0033333333334" y="370" as="targetPoint"/>
                    </mxGeometry>
                </mxCell>
                <mxCell id="32" value="user" style="swimlane;childLayout=stackLayout;horizontal=1;startSize=30;horizontalStack=0;rounded=1;fontSize=14;fontStyle=0;strokeWidth=2;resizeParent=0;resizeLast=1;shadow=0;dashed=0;align=center;" parent="1" vertex="1">
                    <mxGeometry x="330" y="860" width="310" height="120" as="geometry"/>
                </mxCell>
                <mxCell id="33" value="email                         VARCHAR(200)                PK&#10;name                         VARCHAR(200)&#10;password                   VARCHAR&#10;isVerified                    BOOL&#10;isAdmin                      BOOL&#10;&#10;" style="align=left;strokeColor=none;fillColor=none;spacingLeft=4;fontSize=12;verticalAlign=top;resizable=0;rotatable=0;part=1;" parent="32" vertex="1">
                    <mxGeometry y="30" width="310" height="90" as="geometry"/>
                </mxCell>
                <mxCell id="35" value="fly_stats" style="ellipse;whiteSpace=wrap;html=1;align=center;" parent="1" vertex="1">
                    <mxGeometry x="530" y="270" width="85" height="40" as="geometry"/>
                </mxCell>
                <mxCell id="36" value="about" style="ellipse;whiteSpace=wrap;html=1;align=center;" parent="1" vertex="1">
                    <mxGeometry x="570" y="320" width="90" height="40" as="geometry"/>
                </mxCell>
                <mxCell id="37" value="price" style="ellipse;whiteSpace=wrap;html=1;align=center;" parent="1" vertex="1">
                    <mxGeometry x="570" y="370" width="90" height="40" as="geometry"/>
                </mxCell>
                <mxCell id="38" value="" style="endArrow=none;html=1;rounded=0;" parent="1" source="37" target="2" edge="1">
                    <mxGeometry relative="1" as="geometry">
                        <mxPoint x="480" y="300" as="sourcePoint"/>
                        <mxPoint x="522.7272727272727" y="280" as="targetPoint"/>
                    </mxGeometry>
                </mxCell>
                <mxCell id="39" value="" style="endArrow=none;html=1;rounded=0;" parent="1" source="2" target="35" edge="1">
                    <mxGeometry relative="1" as="geometry">
                        <mxPoint x="470.78641550837324" y="280" as="sourcePoint"/>
                        <mxPoint x="640" y="300" as="targetPoint"/>
                    </mxGeometry>
                </mxCell>
                <mxCell id="40" value="" style="endArrow=none;html=1;rounded=0;" parent="1" source="2" target="36" edge="1">
                    <mxGeometry relative="1" as="geometry">
                        <mxPoint x="502.73142776373925" y="280" as="sourcePoint"/>
                        <mxPoint x="640" y="300" as="targetPoint"/>
                    </mxGeometry>
                </mxCell>
                <mxCell id="63" value="disc" style="swimlane;childLayout=stackLayout;horizontal=1;startSize=30;horizontalStack=0;rounded=1;fontSize=14;fontStyle=0;strokeWidth=2;resizeParent=0;resizeLast=1;shadow=0;dashed=0;align=center;" parent="1" vertex="1">
                    <mxGeometry x="340" y="490" width="310" height="170" as="geometry"/>
                </mxCell>
                <mxCell id="64" value="id                             INT AUTOINCREMENT          PK&#10;brand                       VARCHAR(100)&#10;model                       VARCHAR(100)&#10;version                     VARCHAR(100)&#10;plastic                      VARCHAR(100)&#10;amount                    INT&#10;fly_stats                   VARCHAR(20)&#10;about                       VARCHAR(10000)&#10;price                        INT&#10;" style="align=left;strokeColor=none;fillColor=none;spacingLeft=4;fontSize=12;verticalAlign=top;resizable=0;rotatable=0;part=1;" parent="63" vertex="1">
                    <mxGeometry y="30" width="310" height="140" as="geometry"/>
                </mxCell>
                <mxCell id="65" value="user" style="whiteSpace=wrap;html=1;align=center;" parent="1" vertex="1">
                    <mxGeometry x="430" y="770" width="100" height="40" as="geometry"/>
                </mxCell>
                <mxCell id="66" value="password" style="ellipse;whiteSpace=wrap;html=1;align=center;" parent="1" vertex="1">
                    <mxGeometry x="437.5" y="710" width="85" height="40" as="geometry"/>
                </mxCell>
                <mxCell id="67" value="isVerified" style="ellipse;whiteSpace=wrap;html=1;align=center;" parent="1" vertex="1">
                    <mxGeometry x="540" y="730" width="90" height="40" as="geometry"/>
                </mxCell>
                <mxCell id="68" value="name" style="ellipse;whiteSpace=wrap;html=1;align=center;" parent="1" vertex="1">
                    <mxGeometry x="330" y="730" width="90" height="40" as="geometry"/>
                </mxCell>
                <mxCell id="69" value="email" style="ellipse;whiteSpace=wrap;html=1;align=center;fontStyle=4;" parent="1" vertex="1">
                    <mxGeometry x="320" y="790" width="90" height="40" as="geometry"/>
                </mxCell>
                <mxCell id="70" value="isAdmin" style="ellipse;whiteSpace=wrap;html=1;align=center;" parent="1" vertex="1">
                    <mxGeometry x="560" y="790" width="90" height="40" as="geometry"/>
                </mxCell>
                <mxCell id="71" value="" style="endArrow=none;html=1;rounded=0;" parent="1" source="65" target="69" edge="1">
                    <mxGeometry relative="1" as="geometry">
                        <mxPoint x="460" y="850" as="sourcePoint"/>
                        <mxPoint x="620" y="850" as="targetPoint"/>
                    </mxGeometry>
                </mxCell>
                <mxCell id="72" value="" style="endArrow=none;html=1;rounded=0;" parent="1" source="70" target="65" edge="1">
                    <mxGeometry relative="1" as="geometry">
                        <mxPoint x="460" y="850" as="sourcePoint"/>
                        <mxPoint x="620" y="850" as="targetPoint"/>
                    </mxGeometry>
                </mxCell>
                <mxCell id="73" value="" style="endArrow=none;html=1;rounded=0;" parent="1" source="65" target="66" edge="1">
                    <mxGeometry relative="1" as="geometry">
                        <mxPoint x="460" y="850" as="sourcePoint"/>
                        <mxPoint x="620" y="850" as="targetPoint"/>
                    </mxGeometry>
                </mxCell>
                <mxCell id="74" value="" style="endArrow=none;html=1;rounded=0;" parent="1" source="65" target="67" edge="1">
                    <mxGeometry relative="1" as="geometry">
                        <mxPoint x="460" y="850" as="sourcePoint"/>
                        <mxPoint x="620" y="850" as="targetPoint"/>
                    </mxGeometry>
                </mxCell>
                <mxCell id="75" value="" style="endArrow=none;html=1;rounded=0;" parent="1" source="68" target="65" edge="1">
                    <mxGeometry relative="1" as="geometry">
                        <mxPoint x="460" y="850" as="sourcePoint"/>
                        <mxPoint x="470" y="850" as="targetPoint"/>
                    </mxGeometry>
                </mxCell>
            </root>
        </mxGraphModel>
    </diagram>
</mxfile>